<svg width="512" height="512" viewBox="0 0 512 512" fill="none" xmlns="http://www.w3.org/2000/svg">
    <g clip-path="url(#clip0_1_131)">
        <path
            d="M70.3307 319.007C74.612 289.673 75.675 229.158 117.355 189.453C120.88 186.095 123.397 181.777 124.182 176.972C128.342 151.499 135.682 113.501 142.047 100.457C143.97 96.5145 148.81 94.7124 153.152 95.3323C163.904 96.8672 179.486 107.855 192.113 119.639C201.551 128.447 207.286 139.135 219.817 136.039C236.156 132.002 261.762 127.221 287 128.906C314.894 130.77 338.733 139.764 353.581 146.61C364.094 151.458 374.286 145.172 384.24 139.263C394.937 132.913 405.786 129.757 414.237 128.446C423.513 127.008 438.75 128.87 441.04 137.974C445.312 154.956 437.269 191.517 430.484 214.936C429.532 218.222 429.393 221.676 430.065 225.029C438.29 266.028 437.455 300.284 435.188 328.237C435.066 329.743 435.118 331.254 435.291 332.755C437.422 351.232 433.596 370.786 427.828 380.317C426.736 382.122 425.113 383.495 423.289 384.556C388.024 405.089 306.879 423.631 227 413.5C150.458 403.792 93.9561 363.633 72.9472 332.846C70.2023 328.824 69.6275 323.826 70.3307 319.007Z"
            fill="#FFBF00" />
        <ellipse cx="179.646" cy="211.103" rx="18.5" ry="24.5" transform="rotate(13.3188 179.646 211.103)"
            fill="black" />
        <ellipse cx="295.646" cy="230.103" rx="18.5" ry="24.5" transform="rotate(2.77732 295.646 230.103)"
            fill="black" />
        <path fill-rule="evenodd" clip-rule="evenodd"
            d="M183.57 303.317L166.57 270.817L175.43 266.183L189.487 293.055L208.707 276.237C210.605 274.576 213.443 274.589 215.326 276.267L239.189 297.526L258.855 276.578L266.145 283.422L243.145 307.922C241.29 309.898 238.198 310.036 236.174 308.233L211.97 286.67L191.293 304.763C190.139 305.772 188.587 306.197 187.08 305.915C185.574 305.633 184.28 304.675 183.57 303.317Z"
            fill="black" />
        <path
            d="M176 268.5C176 271.261 173.761 273.5 171 273.5C168.239 273.5 166 271.261 166 268.5C166 265.739 168.239 263.5 171 263.5C173.761 263.5 176 265.739 176 268.5Z"
            fill="black" />
        <path
            d="M267.5 280C267.5 282.761 265.261 285 262.5 285C259.739 285 257.5 282.761 257.5 280C257.5 277.239 259.739 275 262.5 275C265.261 275 267.5 277.239 267.5 280Z"
            fill="black" />
        <rect x="385" y="262.548" width="106" height="8" rx="4" transform="rotate(-11.7288 385 262.548)"
            fill="#738080" />
        <rect x="385" y="274.476" width="106" height="8" rx="4" transform="rotate(-1.87896 385 274.476)"
            fill="#738080" />
        <rect width="106" height="8" rx="4" transform="matrix(-0.979121 -0.20328 -0.20328 0.979121 127.205 251.548)"
            fill="#738080" />
        <rect width="106" height="8" rx="4" transform="matrix(-0.999462 -0.0327881 -0.0327881 0.999462 127.205 263.476)"
            fill="#738080" />
    </g>
    <defs>
        <clipPath id="clip0_1_131">
            <rect width="512" height="512" fill="white" />
        </clipPath>
    </defs>
</svg>