<svg width="512" height="512" viewBox="0 0 512 512" fill="none" xmlns="http://www.w3.org/2000/svg">
    <path d="M192 64H288V96H192V64Z" fill="#969696" />
    <path d="M352 96H384V128H352V96Z" fill="#969696" />
    <path d="M384 192H416V256H384V192Z" fill="#969696" />
    <path d="M384 320H416V352H384V320Z" fill="#969696" />
    <path d="M352 352H384V416H352V352Z" fill="#969696" />
    <path d="M320 416H352V448H320V416Z" fill="#969696" />
    <path d="M256 384H288V448H256V384Z" fill="#969696" />
    <path d="M288 224H320V416H288V224Z" fill="#969696" />
    <path d="M96 128H128V160H96V128Z" fill="#5F5F5F" />
    <path d="M160 96H256V128H160V96Z" fill="#5F5F5F" />
    <path d="M224 128H256V192H224V128Z" fill="#5F5F5F" />
    <path d="M256 160H288V192H256V160Z" fill="#5F5F5F" />
    <path d="M384 128H416V160H384V128Z" fill="#5F5F5F" />
    <path d="M160 128H224V192H160V128Z" fill="#545454" />
    <path d="M128 128H160V160H128V128Z" fill="#545454" />
    <path d="M288 64H352V96H288V64Z" fill="#A8A8A8" />
    <path d="M384 256H416V320H384V256Z" fill="#A8A8A8" />
    <path d="M224 224H288V384H224V224Z" fill="#A8A8A8" />
    <path d="M224 384H256V448H224V384Z" fill="#A8A8A8" />
    <path d="M128 384H160V416H128V384Z" fill="#A8A8A8" />
    <path d="M160 416H192V448H160V416Z" fill="#A8A8A8" />
    <path d="M96 288H128V320H96V288Z" fill="#A8A8A8" />
    <path d="M128 192H160V224H128V192Z" fill="#A8A8A8" />
    <path d="M96 192H128V224H96V192Z" fill="#D8D8D8" />
    <path d="M96 224H160V288H96V224Z" fill="#D8D8D8" />
    <path d="M160 224H224V256H160V224Z" fill="#D8D8D8" />
    <path d="M192 256H224V352H192V256Z" fill="#D8D8D8" />
    <path d="M128 352H224V384H128V352Z" fill="#D8D8D8" />
    <path d="M192 384H224V448H192V384Z" fill="#D8D8D8" />
    <path d="M160 384H192V416H160V384Z" fill="#D8D8D8" />
    <path d="M128 288H160V352H128V288Z" fill="#D8D8D8" />
    <path d="M160 256H192V352H160V256Z" fill="white" />
    <path d="M160 64H192V96H160V64Z" fill="#727272" />
    <path d="M96 96H160V128H96V96Z" fill="#727272" />
    <path d="M256 96H352V160H256V96Z" fill="#727272" />
    <path d="M288 160H352V192H288V160Z" fill="#727272" />
    <path d="M352 128H384V160H352V128Z" fill="#727272" />
    <path d="M384 96H416V128H384V96Z" fill="#727272" />
    <path d="M352 224H384V352H352V224Z" fill="#727272" />
    <path d="M320 224H352V416H320V224Z" fill="#727272" />
    <path d="M288 416H320V448H288V416Z" fill="#727272" />
    <path d="M96 320H128V352H96V320Z" fill="#727272" />
    <path d="M352 192H384V224H352V192Z" fill="#727272" />
    <path d="M160 32H352V64H160V32Z" fill="#353535" />
    <path d="M352 64H416V96H352V64Z" fill="#353535" />
    <path d="M416 96H448V352H416V96Z" fill="#353535" />
    <path d="M384 352H416V416H384V352Z" fill="#353535" />
    <path d="M352 416H384V448H352V416Z" fill="#353535" />
    <path d="M160 448H352V480H160V448Z" fill="#353535" />
    <path d="M128 416H160V448H128V416Z" fill="#353535" />
    <path d="M96 352H128V416H96V352Z" fill="#353535" />
    <path d="M64 96H96V352H64V96Z" fill="#353535" />
    <path d="M96 64H160V96H96V64Z" fill="#353535" />
    <path d="M96 160H160V192H96V160Z" fill="#353535" />
    <path d="M160 192H352V224H160V192Z" fill="#353535" />
    <path d="M352 160H416V192H352V160Z" fill="#353535" />
    <g clip-path="url(#clip0_1_928)">
        <g clip-path="url(#clip1_1_928)">
            <path
                d="M164.153 175.173C165.927 160.297 167.795 135.014 184.527 116.846C187.826 113.264 190.391 108.981 191.215 104.181C193.047 93.5134 195.719 80.1299 198.26 72.7932C199.696 68.6485 204.237 66.4036 208.325 67.9917C210.308 68.7617 212.466 69.9393 214.668 71.3791C225.473 78.4422 238.043 86.8982 250.807 84.9696C257.307 83.9875 264.684 83.3895 271.999 83.8781C281.46 84.5101 289.988 86.7829 296.812 89.2481C306.917 92.8981 324.369 85.5885 334.956 83.7565C343.54 82.271 349.781 86.5431 349.606 95.2528C349.433 103.789 346.901 115.459 344.449 124.377C343.543 127.675 343.402 131.138 344.024 134.501C347.506 153.327 347.199 169.237 346.181 182.409C346.065 183.916 346.125 185.427 346.259 186.932C346.977 194.995 345.506 203.293 343.164 208.181C342.252 210.083 340.613 211.472 338.759 212.479C320.456 222.428 280.927 231.11 241.999 226.173C206.199 221.633 179.168 203.769 167.228 188.881C164.181 185.082 163.577 180.009 164.153 175.173Z"
                fill="#FFBF00" />
            <ellipse cx="218.823" cy="125.051" rx="9.25" ry="12.25" transform="rotate(13.3188 218.823 125.051)"
                fill="black" />
            <ellipse cx="276.833" cy="134.684" rx="9.25" ry="12.25" transform="rotate(2.77732 276.833 134.684)"
                fill="black" />
            <path fill-rule="evenodd" clip-rule="evenodd"
                d="M220.785 170.909L212.285 154.659L216.715 152.341L223.743 165.778L233.354 157.369C234.303 156.538 235.722 156.545 236.663 157.383L248.594 168.013L258.427 157.539L262.073 160.961L250.573 173.211C249.645 174.199 248.099 174.268 247.087 173.367L234.985 162.585L224.646 171.631C224.07 172.136 223.293 172.348 222.54 172.207C221.787 172.066 221.14 171.588 220.785 170.909Z"
                fill="black" />
            <path
                d="M217 153.5C217 154.881 215.881 156 214.5 156C213.119 156 212 154.881 212 153.5C212 152.119 213.119 151 214.5 151C215.881 151 217 152.119 217 153.5Z"
                fill="black" />
            <path
                d="M262.75 159.25C262.75 160.631 261.631 161.75 260.25 161.75C258.869 161.75 257.75 160.631 257.75 159.25C257.75 157.869 258.869 156.75 260.25 156.75C261.631 156.75 262.75 157.869 262.75 159.25Z"
                fill="black" />
            <rect x="320.002" y="150.274" width="53.0005" height="4.00004" rx="2.00002"
                transform="rotate(-11.7288 320.002 150.274)" fill="#738080" />
            <rect x="320.002" y="156.238" width="53.0005" height="4.00004" rx="2.00002"
                transform="rotate(-1.87896 320.002 156.238)" fill="#738080" />
            <rect width="53.0005" height="4.00004" rx="2.00002"
                transform="matrix(-0.979121 -0.20328 -0.20328 0.979121 191.103 144.774)" fill="#738080" />
            <rect width="53.0005" height="4.00004" rx="2.00002"
                transform="matrix(-0.999462 -0.0327881 -0.0327881 0.999462 191.103 150.738)" fill="#738080" />
        </g>
        <path
            d="M234.466 92.8094L235.833 74.1096L302.653 78.9931L300.885 92.901C299.699 103.643 298.289 100.983 265.798 113.398C258.963 110.893 249.713 103.699 245.51 102.891C241.172 102.056 236.633 96.3099 234.466 92.8094Z"
            fill="#383838" />
        <path
            d="M228.103 64.8047L269.738 47.3373C270.476 47.0278 271.318 47.0902 272.002 47.5052L310.871 71.0829C312.619 72.1436 312.424 74.7408 310.536 75.5278L268.681 92.9792C267.942 93.2871 267.101 93.2229 266.418 92.8063L227.769 69.2446C226.027 68.1827 226.222 65.5939 228.103 64.8047Z"
            fill="#727272" />
        <path fill-rule="evenodd" clip-rule="evenodd"
            d="M256.854 73.9862C259.345 73.0018 262.395 71.7963 266.162 70.2448L267.495 73.481C263.702 75.0431 260.618 76.262 258.125 77.2475C257.297 77.5748 256.534 77.8763 255.832 78.156C252.971 79.2962 251.206 80.0438 250.061 80.7053C248.976 81.3318 248.667 81.7584 248.495 82.1752C248.255 82.7581 248.177 83.5523 248.051 85.2797L247.158 97.4969L243.667 97.2418L244.56 85.0246C244.565 84.9579 244.57 84.8913 244.575 84.8249C244.679 83.3833 244.779 82.0072 245.259 80.8416C245.83 79.4562 246.843 78.5224 248.31 77.6747C249.717 76.8621 251.733 76.0218 254.536 74.9048C255.25 74.6202 256.021 74.3156 256.854 73.9862Z"
            fill="#DF9C0A" />
        <path
            d="M268.574 71.9905C268.503 72.9544 267.665 73.6787 266.701 73.6083C265.737 73.5378 265.013 72.6993 265.083 71.7354C265.154 70.7715 265.992 70.0472 266.956 70.1176C267.92 70.1881 268.644 71.0266 268.574 71.9905Z"
            fill="#DF9C0A" />
        <path fill-rule="evenodd" clip-rule="evenodd"
            d="M243.595 98.2391L243.85 94.7485L247.34 95.0036L247.085 98.4942L243.595 98.2391Z" fill="#E9CC6B" />
        <path
            d="M240.633 101.031L243.595 98.2391L247.085 98.4942L249.858 101.705L249.67 107.707L239.947 106.996L240.633 101.031Z"
            fill="#DF9C0A" />
        <path
            d="M268.574 71.9905C268.503 72.9544 267.665 73.6787 266.701 73.6083C265.737 73.5378 265.013 72.6993 265.083 71.7354C265.154 70.7715 265.992 70.0472 266.956 70.1176C267.92 70.1881 268.644 71.0266 268.574 71.9905Z"
            fill="#DF9C0A" />
        <path fill-rule="evenodd" clip-rule="evenodd"
            d="M227.769 69.2446C226.027 68.1827 226.222 65.5939 228.103 64.8047L269.738 47.3373C270.476 47.0278 271.318 47.0902 272.002 47.5052L310.871 71.0829C312.619 72.1436 312.424 74.7408 310.536 75.5278L302.289 78.9665L302.653 78.9931L300.885 92.901C299.977 101.128 298.937 101.494 283.906 106.791C279.31 108.41 273.406 110.491 265.798 113.398C262.442 112.168 258.503 109.807 254.866 107.627C254.803 107.59 254.741 107.553 254.679 107.515C252.982 106.499 251.355 105.527 249.888 104.733C249.847 104.711 249.806 104.689 249.766 104.667L249.67 107.707L239.947 106.996L240.633 101.031L241.092 100.598C240.218 99.8947 239.373 99.0834 238.582 98.2297C238.228 97.8473 237.884 97.4565 237.553 97.063C236.302 95.5755 235.235 94.0511 234.466 92.8094L235.829 74.1586L227.769 69.2446ZM230.62 76.8387L225.166 73.5137C219.94 70.3279 220.525 62.5618 226.168 60.1941L267.804 42.7267C270.018 41.798 272.543 41.9852 274.595 43.2303L313.464 66.8081C318.709 69.9901 318.123 77.7815 312.46 80.1426L307.272 82.3057L305.85 93.4912C305.565 96.0655 305.197 98.8726 303.844 101.314C302.33 104.045 299.99 105.688 297.276 107.014C294.675 108.285 291.096 109.557 286.484 111.184C286.185 111.289 285.881 111.396 285.572 111.505C280.979 113.123 275.128 115.185 267.583 118.068L265.835 118.736L264.078 118.092C260.864 116.915 257.312 114.902 254.194 113.051L234.383 111.603L235.465 102.208C233.261 99.9407 231.418 97.3848 230.215 95.4413L229.361 94.0624L230.62 76.8387Z"
            fill="black" />
    </g>
    <defs>
        <clipPath id="clip0_1_928">
            <rect width="256" height="173" fill="white" transform="translate(128 19)" />
        </clipPath>
        <clipPath id="clip1_1_928">
            <rect width="256" height="256" fill="white" transform="translate(128 19)" />
        </clipPath>
    </defs>
</svg>