<svg width="512" height="512" viewBox="0 0 512 512" fill="none" xmlns="http://www.w3.org/2000/svg">
    <g clip-path="url(#clip0_1_149)">
        <path
            d="M70.3307 319.007C74.612 289.673 75.675 229.158 117.355 189.453C120.88 186.095 123.397 181.777 124.182 176.972C128.342 151.499 135.682 113.501 142.047 100.457C143.97 96.5145 148.81 94.7124 153.152 95.3323C163.904 96.8672 179.486 107.855 192.113 119.639C201.551 128.447 207.286 139.135 219.817 136.039C236.156 132.002 261.762 127.221 287 128.906C314.894 130.77 338.733 139.764 353.581 146.61C364.094 151.458 374.286 145.172 384.24 139.263C394.937 132.913 405.786 129.757 414.237 128.446C423.513 127.008 438.75 128.87 441.04 137.974C445.312 154.956 437.269 191.517 430.484 214.936C429.532 218.222 429.393 221.676 430.065 225.029C438.29 266.028 437.455 300.284 435.188 328.237C435.066 329.743 435.118 331.254 435.291 332.755C437.422 351.232 433.596 370.786 427.828 380.317C426.736 382.122 425.113 383.495 423.289 384.556C388.024 405.089 306.879 423.631 227 413.5C150.458 403.792 93.9561 363.633 72.9472 332.846C70.2023 328.824 69.6275 323.826 70.3307 319.007Z"
            fill="#FFBF00" />
        <ellipse cx="179.646" cy="211.103" rx="18.5" ry="24.5" transform="rotate(13.3188 179.646 211.103)"
            fill="black" />
        <ellipse cx="295.646" cy="230.103" rx="18.5" ry="24.5" transform="rotate(2.77732 295.646 230.103)"
            fill="black" />
        <path fill-rule="evenodd" clip-rule="evenodd"
            d="M183.57 303.317L166.57 270.817L175.43 266.183L189.487 293.055L208.707 276.237C210.605 274.576 213.443 274.589 215.326 276.267L239.189 297.526L258.855 276.578L266.145 283.422L243.145 307.922C241.29 309.898 238.198 310.036 236.174 308.233L211.97 286.67L191.293 304.763C190.139 305.772 188.587 306.197 187.08 305.915C185.574 305.633 184.28 304.675 183.57 303.317Z"
            fill="black" />
        <path
            d="M176 268.5C176 271.261 173.761 273.5 171 273.5C168.239 273.5 166 271.261 166 268.5C166 265.739 168.239 263.5 171 263.5C173.761 263.5 176 265.739 176 268.5Z"
            fill="black" />
        <path
            d="M267.5 280C267.5 282.761 265.261 285 262.5 285C259.739 285 257.5 282.761 257.5 280C257.5 277.239 259.739 275 262.5 275C265.261 275 267.5 277.239 267.5 280Z"
            fill="black" />
        <rect x="385" y="262.548" width="106" height="8" rx="4" transform="rotate(-11.7288 385 262.548)"
            fill="#738080" />
        <rect x="385" y="274.476" width="106" height="8" rx="4" transform="rotate(-1.87896 385 274.476)"
            fill="#738080" />
        <rect width="106" height="8" rx="4" transform="matrix(-0.979121 -0.20328 -0.20328 0.979121 127.205 251.548)"
            fill="#738080" />
        <rect width="106" height="8" rx="4" transform="matrix(-0.999462 -0.0327881 -0.0327881 0.999462 127.205 263.476)"
            fill="#738080" />
    </g>
    <path
        d="M213.918 147.939L216.652 110.539L350.295 120.307L346.758 148.123C344.386 169.608 341.566 164.288 276.583 189.117C262.912 184.107 244.411 169.72 236.007 168.103C227.33 166.433 218.253 154.94 213.918 147.939Z"
        fill="#383838" />
    <path
        d="M201.192 91.9283L284.465 56.9939C285.941 56.3748 287.624 56.4996 288.992 57.3297L366.73 104.487C370.227 106.608 369.836 111.803 366.061 113.377L282.349 148.279C280.872 148.895 279.189 148.767 277.822 147.933L200.523 100.808C197.039 98.6843 197.429 93.5068 201.192 91.9283Z"
        fill="#727272" />
    <path fill-rule="evenodd" clip-rule="evenodd"
        d="M258.696 110.292C263.677 108.324 269.778 105.913 277.312 102.81L279.977 109.282C272.392 112.406 266.223 114.844 261.236 116.815C259.58 117.47 258.055 118.073 256.651 118.632C250.929 120.912 247.398 122.408 245.108 123.731C242.939 124.984 242.321 125.837 241.977 126.67C241.497 127.836 241.341 129.425 241.088 132.879L239.302 157.314L232.321 156.804L234.107 132.369C234.117 132.236 234.126 132.103 234.136 131.97C234.345 129.087 234.545 126.334 235.505 124.003C236.647 121.232 238.672 119.365 241.606 117.669C244.42 116.044 248.453 114.363 254.059 112.129C255.487 111.56 257.029 110.951 258.696 110.292Z"
        fill="#DF9C0A" />
    <path
        d="M282.135 106.301C281.994 108.229 280.317 109.678 278.389 109.537C276.461 109.396 275.013 107.719 275.154 105.791C275.295 103.863 276.972 102.414 278.9 102.555C280.827 102.696 282.276 104.373 282.135 106.301Z"
        fill="#DF9C0A" />
    <path fill-rule="evenodd" clip-rule="evenodd"
        d="M232.175 158.799L232.685 151.817L239.667 152.328L239.156 159.309L232.175 158.799Z" fill="#E9CC6B" />
    <path
        d="M226.252 164.382L232.175 158.799L239.156 159.309L244.703 165.73L244.327 177.735L224.879 176.313L226.252 164.382Z"
        fill="#DF9C0A" />
    <path
        d="M282.135 106.301C281.994 108.229 280.317 109.678 278.389 109.537C276.461 109.396 275.013 107.719 275.154 105.791C275.295 103.863 276.972 102.414 278.9 102.555C280.827 102.696 282.276 104.373 282.135 106.301Z"
        fill="#DF9C0A" />
    <path fill-rule="evenodd" clip-rule="evenodd"
        d="M200.523 100.808C197.039 98.6843 197.429 93.5068 201.192 91.9283L284.465 56.9939C285.941 56.3748 287.624 56.4996 288.992 57.3297L366.73 104.487C370.227 106.608 369.836 111.803 366.061 113.377L349.566 120.254L350.295 120.307L346.758 148.123C344.941 164.577 342.862 165.31 312.799 175.903C303.607 179.142 291.799 183.303 276.583 189.117C269.87 186.657 261.992 181.936 254.718 177.576C254.593 177.501 254.468 177.426 254.344 177.352C250.951 175.318 247.697 173.374 244.762 171.787C244.68 171.743 244.599 171.699 244.517 171.655L244.327 177.735L224.879 176.313L226.252 164.382L227.17 163.516C225.422 162.11 223.732 160.487 222.15 158.78C221.441 158.015 220.753 157.233 220.092 156.446C217.59 153.471 215.456 150.422 213.918 147.939L216.645 110.637L200.523 100.808ZM206.226 115.997L195.318 109.347C184.866 102.975 186.036 87.4423 197.323 82.7069L280.596 47.7725C285.024 45.915 290.073 46.2895 294.179 48.7798L371.917 95.9371C382.408 102.301 381.235 117.884 369.909 122.607L359.533 126.933L356.689 149.304C356.119 154.453 355.383 160.067 352.677 164.949C349.648 170.412 344.968 173.698 339.54 176.35C334.338 178.893 327.179 181.436 317.954 184.689C317.358 184.899 316.75 185.114 316.131 185.332C306.945 188.569 295.244 192.692 280.152 198.458L276.656 199.794L273.142 198.506C266.715 196.151 259.61 192.125 253.373 188.423L213.752 185.527L215.915 166.736C211.508 162.202 207.822 157.09 205.416 153.203L203.708 150.445L206.226 115.997Z"
        fill="black" />
    <defs>
        <clipPath id="clip0_1_149">
            <rect width="512" height="512" fill="white" />
        </clipPath>
    </defs>
</svg>